HIERARCHY
ROOT Hips
{
 OFFSET 0.000000 0.000000 0.000000
 CHANNELS 6 Xposition Yposition Zposition Yrotation Xrotation Zrotation
 JOINT Chest
 {
  OFFSET 0.000000 9.588913 -0.003946
  CHANNELS 3 Yrotation Xrotation Zrotation
  JOINT Chest2
  {
   OFFSET 0.000000 9.541882 0.008053
   CHANNELS 3 Yrotation Xrotation Zrotation
   JOINT Chest3
   {
    OFFSET 0.000000 9.501360 0.000000
    CHANNELS 3 Yrotation Xrotation Zrotation
    JOINT Chest4
    {
     OFFSET 0.000000 9.491660 0.000000
     CHANNELS 3 Yrotation Xrotation Zrotation
     JOINT Neck
     {
      OFFSET 0.000000 14.331917 0.000000
      CHANNELS 3 Yrotation Xrotation Zrotation
      JOINT Head
      {
       OFFSET 0.000000 8.884799 0.017034
       CHANNELS 3 Yrotation Xrotation Zrotation
       End Site
       {
        OFFSET 0.000000 16.896195 0.008993
       }
      }
     }
     JOINT RightCollar
     {
      OFFSET -2.923010 9.499495 0.000000
      CHANNELS 3 Yrotation Xrotation Zrotation
      JOINT RightShoulder
      {
       OFFSET -13.795216 0.000000 0.000000
       CHANNELS 3 Yrotation Xrotation Zrotation
       JOINT RightElbow
       {
        OFFSET -30.272209 0.000000 0.000000
        CHANNELS 3 Yrotation Xrotation Zrotation
        JOINT RightWrist
        {
         OFFSET -24.478199 0.000000 0.000000
         CHANNELS 3 Yrotation Xrotation Zrotation
         End Site
         {
          OFFSET -18.090752 0.000000 0.000000
         }
        }
       }
      }
     }
     JOINT LeftCollar
     {
      OFFSET 2.923010 9.499495 0.000000
      CHANNELS 3 Yrotation Xrotation Zrotation
      JOINT LeftShoulder
      {
       OFFSET 13.795216 0.000000 0.000000
       CHANNELS 3 Yrotation Xrotation Zrotation
       JOINT LeftElbow
       {
        OFFSET 30.272209 0.000000 0.000000
        CHANNELS 3 Yrotation Xrotation Zrotation
        JOINT LeftWrist
        {
         OFFSET 24.478199 0.000000 0.000000
         CHANNELS 3 Yrotation Xrotation Zrotation
         End Site
         {
          OFFSET 18.090752 0.000000 0.000000
         }
        }
       }
      }
     }
    }
   }
  }
 }
 JOINT RightHip
 {
  OFFSET -7.826875 0.019532 0.001973
  CHANNELS 3 Yrotation Xrotation Zrotation
  JOINT RightKnee
  {
   OFFSET 0.000000 -40.546152 -0.001885
   CHANNELS 3 Yrotation Xrotation Zrotation
   JOINT RightAnkle
   {
    OFFSET 0.000000 -39.417092 -0.003189
    CHANNELS 3 Yrotation Xrotation Zrotation
    JOINT RightToe
    {
     OFFSET 0.000000 -7.579396 17.243563
     CHANNELS 3 Yrotation Xrotation Zrotation
     End Site
     {
      OFFSET 0.000000 -1.500329 6.694466
     }
    }
   }
  }
 }
 JOINT LeftHip
 {
  OFFSET 7.826875 0.019532 0.001973
  CHANNELS 3 Yrotation Xrotation Zrotation
  JOINT LeftKnee
  {
   OFFSET 0.000000 -40.546152 -0.001885
   CHANNELS 3 Yrotation Xrotation Zrotation
   JOINT LeftAnkle
   {
    OFFSET 0.000000 -39.417092 -0.003189
    CHANNELS 3 Yrotation Xrotation Zrotation
    JOINT LeftToe
    {
     OFFSET 0.000000 -7.579396 17.243563
     CHANNELS 3 Yrotation Xrotation Zrotation
     End Site
     {
      OFFSET 0.000000 -1.500329 6.694466
     }
    }
   }
  }
 }
}
MOTION
Frames: 10
Frame Time: 0.008333
0.000000 87.345680 0.000000 0.000000 -5.767889 0.000000 0.000000 11.653876 0.000000 0.000000 -5.885988 0.000000 0.000000 -0.000000 0.000000 0.000000 -0.000000 0.000000 0.000000 12.528808 0.000000 0.000000 0.711711 0.000000 0.000000 -0.000000 0.000000 0.000000 -0.000000 0.000000 2.309063 -0.000000 0.000000 -2.309063 -0.000000 -0.000000 0.000000 -0.000000 0.000000 0.000000 0.000000 0.000000 -2.309063 0.000000 0.000000 2.309063 -0.000000 0.000000 0.000000 8.520374 0.000000 0.000000 1.905768 0.000000 -0.000000 -4.658254 0.000000 0.000000 -0.000000 0.000000 0.000000 8.520374 0.000000 0.000000 1.905768 0.000000 -0.000000 -4.658254 0.000000 0.000000 -0.000000 0.000000
4.107436 89.173837 -18.813435 132.855391 -6.953116 0.097803 -3.282593 2.769813 -0.146365 -1.870084 1.582342 -0.099869 -2.338258 1.977351 -0.132918 -1.870084 1.582342 -0.099869 1.349490 24.931691 -0.785358 1.644508 1.309505 -1.160727 14.119908 -0.781283 -1.148920 -2.243787 -3.206344 90.252177 2.906180 7.301347 -0.422275 -1.717883 -1.809810 -1.496488 9.872130 -0.642277 0.199281 -5.412321 -4.160237 -89.946456 3.714852 14.708284 2.070317 -1.212163 -0.071363 0.395062 -5.700979 7.314213 -1.218365 0.752232 1.578590 -0.634601 -3.005923 -2.318602 1.495489 -0.014646 0.086026 -0.006840 1.932351 10.160551 -0.317370 1.311275 2.886278 1.174057 8.776755 -5.946046 -0.264108 0.007439 -0.080206 0.003130
4.113280 89.173971 -18.811600 132.849274 -6.958200 0.096403 -3.281505 2.766576 -0.144509 -1.869859 1.580515 -0.099265 -2.337974 1.975071 -0.132152 -1.869859 1.580515 -0.099265 1.361007 24.931491 -0.779568 1.655702 1.309419 -1.157075 14.114192 -0.780028 -1.142097 -2.262295 -3.193125 90.253310 2.899680 7.301628 -0.424981 -1.714249 -1.811182 -1.496168 9.869964 -0.635824 0.200468 -5.399369 -4.160991 -89.943803 3.712635 14.716974 2.066748 -1.212986 -0.077637 0.399660 -5.693332 7.317006 -1.216518 0.751207 1.587894 -0.630870 -2.994136 -2.326035 1.489759 -0.013390 0.084684 -0.005104 1.928026 10.153868 -0.313230 1.308530 2.915225 1.173732 8.793083 -5.960712 -0.267349 0.008407 -0.079346 0.000565
4.119768 89.174113 -18.809531 132.839223 -6.963996 0.095448 -3.280711 2.763354 -0.143777 -1.869673 1.578532 -0.099205 -2.337740 1.972594 -0.132067 -1.869673 1.578532 -0.099205 1.375847 24.930032 -0.772677 1.670250 1.307840 -1.152984 14.111753 -0.781165 -1.134004 -2.271566 -3.175648 90.258766 2.893413 7.298998 -0.430599 -1.715168 -1.807354 -1.496029 9.873938 -0.629951 0.204452 -5.391241 -4.160834 -89.940712 3.710661 14.724317 2.063496 -1.212195 -0.082925 0.400528 -5.682980 7.319026 -1.213131 0.750631 1.600050 -0.629076 -2.985133 -2.334895 1.485386 -0.013322 0.083452 -0.004479 1.924231 10.147191 -0.312327 1.310200 2.945446 1.174062 8.821476 -5.975214 -0.270425 0.010663 -0.079308 -0.000939
4.126552 89.174253 -18.807525 132.827962 -6.970951 0.095472 -3.280682 2.759943 -0.144431 -1.869636 1.576620 -0.099355 -2.337693 1.970203 -0.132244 -1.869636 1.576620 -0.099355 1.392231 24.927357 -0.765807 1.686473 1.304800 -1.149265 14.111461 -0.782602 -1.126395 -2.273850 -3.157466 90.266878 2.887161 7.298675 -0.436400 -1.718830 -1.804717 -1.496377 9.883519 -0.624945 0.208612 -5.392467 -4.158265 -89.937642 3.709346 14.725904 2.065663 -1.212020 -0.083425 0.393999 -5.667369 7.322392 -1.208951 0.751139 1.612077 -0.629358 -2.983653 -2.343312 1.482470 -0.014064 0.082116 -0.004340 1.921269 10.141617 -0.309786 1.313887 2.977250 1.176119 8.831180 -5.989899 -0.276344 0.011306 -0.079981 -0.001829
4.133366 89.174357 -18.805632 132.817882 -6.978556 0.095818 -3.281856 2.756122 -0.145060 -1.869999 1.574637 -0.099221 -2.338145 1.967725 -0.132068 -1.869999 1.574637 -0.099221 1.408092 24.923918 -0.760403 1.702460 1.300837 -1.147018 14.113521 -0.781651 -1.119400 -2.271030 -3.141262 90.272353 2.881923 7.301673 -0.439260 -1.726209 -1.806466 -1.493758 9.898973 -0.619383 0.210890 -5.401739 -4.155303 -89.934422 3.708998 14.725516 2.070908 -1.211302 -0.079848 0.384568 -5.649716 7.327814 -1.204434 0.752754 1.621732 -0.630220 -2.988423 -2.350436 1.477647 -0.014927 0.080933 -0.002575 1.917790 10.136958 -0.306857 1.318169 3.008764 1.179470 8.829977 -6.004200 -0.283299 0.010718 -0.080678 -0.002487
4.140122 89.174382 -18.803650 132.809150 -6.985647 0.094789 -3.283755 2.753506 -0.144103 -1.870710 1.573089 -0.098358 -2.339030 1.965794 -0.130984 -1.870710 1.573089 -0.098358 1.422612 24.918384 -0.756760 1.717379 1.294296 -1.146371 14.118157 -0.781470 -1.112757 -2.266139 -3.127403 90.274173 2.876425 7.304191 -0.439285 -1.737157 -1.809501 -1.489276 9.916104 -0.614495 0.210844 -5.415526 -4.156229 -89.930928 3.710461 14.722668 2.074505 -1.210329 -0.075297 0.379735 -5.634549 7.333132 -1.197632 0.753546 1.630776 -0.630000 -2.999608 -2.357217 1.468185 -0.015907 0.080038 0.000843 1.910960 10.131968 -0.305493 1.325096 3.038289 1.180508 8.841699 -6.018218 -0.287381 0.011163 -0.080436 -0.002479
4.146408 89.174281 -18.801601 132.802807 -6.990162 0.093440 -3.286234 2.752425 -0.142546 -1.871663 1.572447 -0.096869 -2.340215 1.964999 -0.129123 -1.871663 1.572447 -0.096869 1.435195 24.909176 -0.754399 1.730462 1.283208 -1.146660 14.123076 -0.786267 -1.106419 -2.261036 -3.114885 90.273003 2.869510 7.304501 -0.437957 -1.745797 -1.812395 -1.487366 9.931059 -0.613732 0.207952 -5.432287 -4.161414 -89.926302 3.713959 14.714365 2.075355 -1.210439 -0.068371 0.378709 -5.623007 7.335660 -1.191365 0.754126 1.640269 -0.628550 -3.010862 -2.365053 1.457975 -0.016592 0.079880 0.003691 1.901068 10.126112 -0.301127 1.334531 3.064245 1.178520 8.839213 -6.031797 -0.290052 0.010638 -0.079296 -0.002463
4.152155 89.174080 -18.799885 132.798157 -6.992852 0.093733 -3.289964 2.752538 -0.141774 -1.873209 1.572736 -0.095744 -2.342142 1.965366 -0.127726 -1.873209 1.572736 -0.095744 1.446482 24.896933 -0.752340 1.742183 1.268360 -1.146970 14.128845 -0.795461 -1.099653 -2.257320 -3.103841 90.269573 2.861891 7.306283 -0.436695 -1.747819 -1.816770 -1.486923 9.946538 -0.618720 0.204198 -5.445834 -4.167374 -89.923605 3.716790 14.706170 2.076859 -1.210677 -0.057556 0.377386 -5.615713 7.335739 -1.189069 0.756183 1.650911 -0.627712 -3.013938 -2.374370 1.452390 -0.016850 0.080255 0.004132 1.893995 10.120974 -0.293135 1.341908 3.086524 1.176188 8.808859 -6.044709 -0.294496 0.008254 -0.078048 -0.002331
4.157902 89.173843 -18.798627 132.794169 -6.995984 0.094209 -3.294235 2.753903 -0.141290 -1.875192 1.573723 -0.095143 -2.344620 1.966601 -0.126988 -1.875192 1.573723 -0.095143 1.456788 24.883341 -0.749936 1.752749 1.251827 -1.146678 14.135215 -0.806054 -1.092582 -2.255050 -3.095733 90.268150 2.854338 7.308917 -0.438516 -1.747746 -1.823236 -1.486253 9.962665 -0.627335 0.202371 -5.454610 -4.173127 -89.925474 3.718427 14.698799 2.080229 -1.212329 -0.046383 0.378676 -5.611612 7.335615 -1.186978 0.760357 1.663090 -0.627655 -3.018817 -2.383969 1.449767 -0.017298 0.080173 0.002467 1.892313 10.117742 -0.284674 1.344330 3.106620 1.176194 8.773965 -6.057069 -0.301779 0.006142 -0.077092 -0.001287
